<svg xmlns="http://www.w3.org/2000/svg" xmlns:xlink="http://www.w3.org/1999/xlink" width="1040" height="494.2"><rect width="1040" height="494.2" rx="5" ry="5" class="a"/><svg y="0%" x="0%"><circle cx="20" cy="20" r="6" fill="#ff5f58"/><circle cx="40" cy="20" r="6" fill="#ffbd2e"/><circle cx="60" cy="20" r="6" fill="#18c132"/></svg><svg height="434.2" viewBox="0 0 100 43.42" width="1000" x="15" xmlns="http://www.w3.org/2000/svg" xmlns:xlink="http://www.w3.org/1999/xlink" y="50"><style>@keyframes k{0%{transform:translateX(0)}.2%{transform:translateX(-100px)}22.4%{transform:translateX(-200px)}25.2%{transform:translateX(-300px)}52.8%{transform:translateX(-400px)}52.9%{transform:translateX(-500px)}75.1%{transform:translateX(-700px)}99.9%{transform:translateX(-800px)}to{transform:translateX(-900px)}}.a{fill:#282d35}.f{fill:#d290e4;font-weight:700}.f,.g,.h,.m{white-space:pre}.g{fill:#66c2cd;font-weight:700}.h,.m{fill:#b9c0cb}.m{fill:#a8cc8c;font-weight:700}</style><g font-family="Monaco,Consolas,Menlo,'Bitstream Vera Sans Mono','Powerline Symbols',monospace" font-size="1.67"><defs><symbol id="1"><text y="1.67" class="f">SameTree:</text><text x="10.02" y="1.67" class="f">coordinate</text><text x="21.042" y="1.67" class="f">agents</text><text x="28.056" y="1.67" class="f">before</text><text x="35.07" y="1.67" class="f">they</text><text x="40.08" y="1.67" class="f">edit</text></symbol><symbol id="2"><text y="1.67" class="g">$</text><text x="2.004" y="1.67" class="h">sametree</text><text x="11.022" y="1.67" class="h">setup</text><text x="17.034" y="1.67" class="h">--opencode</text></symbol><symbol id="3"><text y="1.67" class="h">ready:</text><text x="7.014" y="1.67" class="h">launch</text><text x="14.028" y="1.67" class="h">opencode</text></symbol><symbol id="4"><text y="1.67" class="g">$</text><text x="2.004" y="1.67" class="h">agent-a</text><text x="10.02" y="1.67" class="h">claims</text><text x="17.034" y="1.67" class="h">a</text><text x="19.038" y="1.67" class="h">task</text><text x="24.048" y="1.67" class="h">and</text><text x="28.056" y="1.67" class="h">its</text><text x="32.064" y="1.67" class="h">file</text></symbol><symbol id="5"><text y="1.67" class="h">task:</text><text x="7.014" y="1.67" class="h">Add</text><text x="11.022" y="1.67" class="h">request</text><text x="19.038" y="1.67" class="h">validation</text><text x="30.06" y="1.67" class="h">(in</text><text x="34.068" y="1.67" class="h">progress)</text></symbol><symbol id="6"><text y="1.67" class="h">file:</text><text x="7.014" y="1.67" class="h">src/api.ts</text><text x="18.036" y="1.67" class="h">claimed</text><text x="26.052" y="1.67" class="h">by</text><text x="29.058" y="1.67" class="h">agent-a</text></symbol><symbol id="7"><text y="1.67" class="g">$</text><text x="2.004" y="1.67" class="h">agent-b</text><text x="10.02" y="1.67" class="h">tries</text><text x="16.032" y="1.67" class="h">to</text><text x="19.038" y="1.67" class="h">claim</text><text x="25.05" y="1.67" class="h">the</text><text x="29.058" y="1.67" class="h">same</text><text x="34.068" y="1.67" class="h">file</text></symbol><symbol id="8"><text y="1.67" class="h">CLAIM_CONFLICT:</text><text x="16.032" y="1.67" class="h">another</text><text x="24.048" y="1.67" class="h">agent</text><text x="30.06" y="1.67" class="h">already</text><text x="38.076" y="1.67" class="h">owns</text><text x="43.086" y="1.67" class="h">this</text><text x="48.096" y="1.67" class="h">path</text></symbol><symbol id="9"><text y="1.67" class="g">$</text><text x="2.004" y="1.67" class="h">agent-a</text><text x="10.02" y="1.67" class="h">sends</text><text x="16.032" y="1.67" class="h">context</text><text x="24.048" y="1.67" class="h">instead</text><text x="32.064" y="1.67" class="h">of</text><text x="35.07" y="1.67" class="h">racing</text></symbol><symbol id="10"><text y="1.67" class="h">agent-a</text><text x="8.016" y="1.67" class="h">-&gt;</text><text x="11.022" y="1.67" class="h">agent-b:</text><text x="20.04" y="1.67" class="h">I</text><text x="22.044" y="1.67" class="h">own</text><text x="26.052" y="1.67" class="h">src/api.ts</text></symbol><symbol id="a"><path fill="transparent" d="M0 0h100v21H0z"/></symbol><symbol id="b"><path fill="#6f7683" d="M0 0h1.102v2.171H0z"/></symbol></defs><path class="a" d="M0 0h100v43.42H0z"/><g style="animation-duration:3.657575s;animation-iteration-count:infinite;animation-name:k;animation-timing-function:steps(1,end)"><svg width="1000"><svg><use xlink:href="#a"/><use xlink:href="#b" x="-.004"/></svg><svg x="100"><use xlink:href="#a"/><use xlink:href="#b" x="-.004" y="6.488"/><use xlink:href="#1"/><use xlink:href="#2" y="4.342"/></svg><svg x="200"><use xlink:href="#a"/><use xlink:href="#b" x="-.004" y="8.659"/><use xlink:href="#1"/><use xlink:href="#2" y="4.342"/><use xlink:href="#3" y="6.513"/></svg><svg x="300"><use xlink:href="#a"/><use xlink:href="#b" x="-.004" y="10.83"/><use xlink:href="#1"/><use xlink:href="#2" y="4.342"/><use xlink:href="#3" y="6.513"/><use xlink:href="#4" y="8.684"/></svg><svg x="400"><use xlink:href="#a"/><use xlink:href="#b" x="-.004" y="13.001"/><use xlink:href="#1"/><use xlink:href="#2" y="4.342"/><use xlink:href="#3" y="6.513"/><use xlink:href="#4" y="8.684"/><use xlink:href="#5" y="10.855"/></svg><svg x="500"><use xlink:href="#a"/><use xlink:href="#b" x="-.004" y="17.343"/><use xlink:href="#1"/><use xlink:href="#2" y="4.342"/><use xlink:href="#3" y="6.513"/><use xlink:href="#4" y="8.684"/><use xlink:href="#5" y="10.855"/><use xlink:href="#6" y="13.026"/><use xlink:href="#7" y="15.197"/></svg><svg x="600"><use xlink:href="#a"/><use xlink:href="#b" x="-.004" y="19.514"/><use xlink:href="#1"/><use xlink:href="#2" y="4.342"/><use xlink:href="#3" y="6.513"/><use xlink:href="#4" y="8.684"/><use xlink:href="#5" y="10.855"/><use xlink:href="#6" y="13.026"/><use xlink:href="#7" y="15.197"/><use xlink:href="#8" y="17.368"/></svg><svg x="700"><use xlink:href="#a"/><use xlink:href="#b" x="-.004" y="21.685"/><use xlink:href="#1"/><use xlink:href="#2" y="4.342"/><use xlink:href="#3" y="6.513"/><use xlink:href="#4" y="8.684"/><use xlink:href="#5" y="10.855"/><use xlink:href="#6" y="13.026"/><use xlink:href="#7" y="15.197"/><use xlink:href="#8" y="17.368"/><use xlink:href="#9" y="19.539"/></svg><svg x="800"><use xlink:href="#a"/><use xlink:href="#b" x="-.004" y="23.856"/><use xlink:href="#1"/><use xlink:href="#2" y="4.342"/><use xlink:href="#3" y="6.513"/><use xlink:href="#4" y="8.684"/><use xlink:href="#5" y="10.855"/><use xlink:href="#6" y="13.026"/><use xlink:href="#7" y="15.197"/><use xlink:href="#8" y="17.368"/><use xlink:href="#9" y="19.539"/><use xlink:href="#10" y="21.71"/></svg><svg x="900"><use xlink:href="#a"/><use xlink:href="#b" x="-.004" y="28.198"/><use xlink:href="#1"/><use xlink:href="#2" y="4.342"/><use xlink:href="#3" y="6.513"/><use xlink:href="#4" y="8.684"/><use xlink:href="#5" y="10.855"/><use xlink:href="#6" y="13.026"/><use xlink:href="#7" y="15.197"/><use xlink:href="#8" y="17.368"/><use xlink:href="#9" y="19.539"/><use xlink:href="#10" y="21.71"/><text y="27.722" class="m">Conflicts</text><text x="10.02" y="27.722" class="m">stop</text><text x="15.03" y="27.722" class="m">early.</text><text x="22.044" y="27.722" class="m">Context</text><text x="30.06" y="27.722" class="m">stays</text><text x="36.072" y="27.722" class="m">shared</text><text x="43.086" y="27.722" class="m">and</text><text x="47.094" y="27.722" class="m">local.</text></svg></svg></g></g></svg></svg>