<svg xmlns="http://www.w3.org/2000/svg" xmlns:xlink="http://www.w3.org/1999/xlink" width="1260" height="601.04"><rect width="1260" height="601.04" rx="5" ry="5" class="a"/><svg y="0%" x="0%"><circle cx="20" cy="20" r="6" fill="#ff5f58"/><circle cx="40" cy="20" r="6" fill="#ffbd2e"/><circle cx="60" cy="20" r="6" fill="#18c132"/></svg><svg height="521.04" viewBox="0 0 120 52.104" width="1200" x="25" xmlns="http://www.w3.org/2000/svg" xmlns:xlink="http://www.w3.org/1999/xlink" y="60"><style>@keyframes m{0%{transform:translateX(0)}.1%{transform:translateX(-120px)}11.7%{transform:translateX(-240px)}13.1%{transform:translateX(-360px)}24.7%{transform:translateX(-480px)}26.1%{transform:translateX(-720px)}37.7%{transform:translateX(-960px)}49.3%{transform:translateX(-1200px)}60.8%{transform:translateX(-1320px)}62.4%{transform:translateX(-1560px)}73.9%{transform:translateX(-1800px)}85.4%{transform:translateX(-2160px)}85.5%{transform:translateX(-2280px)}}.a{fill:#282d35}.f,.g{fill:#d290e4;font-weight:700;white-space:pre}.g{fill:#66c2cd}.h,.i{fill:#b9c0cb}.h{white-space:pre}.i{font-weight:700}.i,.j,.k,.o{white-space:pre}.j{fill:#71bef2;font-weight:700}.k,.o{fill:#a8cc8c}.o{font-weight:700}</style><g font-family="Monaco,Consolas,Menlo,'Bitstream Vera Sans Mono','Powerline Symbols',monospace" font-size="1.67"><defs><symbol id="1"><text y="1.67" class="f">SameTree:</text><text x="10.02" y="1.67" class="f">four</text><text x="15.03" y="1.67" class="f">agents,</text><text x="23.046" y="1.67" class="f">one</text><text x="27.054" y="1.67" class="f">working</text><text x="35.07" y="1.67" class="f">tree</text></symbol><symbol id="2"><text y="1.67" class="g">$</text><text x="2.004" y="1.67" class="h">sametree</text><text x="11.022" y="1.67" class="h">setup</text><text x="17.034" y="1.67" class="h">--opencode</text></symbol><symbol id="3"><text y="1.67" class="i">{</text><text x="1.002" y="1.67" class="j">&quot;created&quot;</text><text x="10.02" y="1.67" class="i">:[</text><text x="12.024" y="1.67" class="k">&quot;.sametree/config.json&quot;</text><text x="35.07" y="1.67" class="i">,</text><text x="36.072" y="1.67" class="k">&quot;.sametree/policy.md&quot;</text><text x="57.114" y="1.67" class="i">,</text><text x="58.116" y="1.67" class="k">&quot;.sametree/coordination.md&quot;</text><text x="85.17" y="1.67" class="i">,</text><text x="86.172" y="1.67" class="k">&quot;.sametree/roles/implementer.md&quot;</text><text x="118.236" y="1.67" class="i">,</text><text x="119.238" y="1.67" class="k">&quot;</text></symbol><symbol id="4"><text y="1.67" class="k">.sametree/roles/reviewer.md&quot;</text><text x="28.056" y="1.67" class="i">],</text><text x="30.06" y="1.67" class="j">&quot;opencode&quot;</text><text x="40.08" y="1.67" class="i">:{</text><text x="42.084" y="1.67" class="j">&quot;configFile&quot;</text><text x="54.108" y="1.67" class="i">:</text><text x="55.11" y="1.67" class="k">&quot;opencode.json&quot;</text><text x="70.14" y="1.67" class="i">,</text><text x="71.142" y="1.67" class="j">&quot;mcp&quot;</text><text x="76.152" y="1.67" class="i">:</text><text x="77.154" y="1.67" class="k">&quot;added&quot;</text><text x="84.168" y="1.67" class="i">,</text><text x="85.17" y="1.67" class="j">&quot;instructions&quot;</text><text x="99.198" y="1.67" class="i">:</text><text x="100.2" y="1.67" class="k">&quot;added&quot;</text><text x="107.214" y="1.67" class="i">}}</text></symbol><symbol id="5"><text y="1.67" class="g">$</text><text x="2.004" y="1.67" class="h">opencode-worker</text><text x="18.036" y="1.67" class="h">creates</text><text x="26.052" y="1.67" class="h">and</text><text x="30.06" y="1.67" class="h">claims</text><text x="37.074" y="1.67" class="h">a</text><text x="39.078" y="1.67" class="h">task</text></symbol><symbol id="6"><text y="1.67" class="i">{</text><text x="1.002" y="1.67" class="j">&quot;id&quot;</text><text x="5.01" y="1.67" class="i">:</text><text x="6.012" y="1.67" class="k">&quot;task_eccf0094-a6c0-47a7-9fd1-3f5edf721789&quot;</text><text x="49.098" y="1.67" class="i">,</text><text x="50.1" y="1.67" class="j">&quot;title&quot;</text><text x="57.114" y="1.67" class="i">:</text><text x="58.116" y="1.67" class="k">&quot;Add</text><text x="63.126" y="1.67" class="k">request</text><text x="71.142" y="1.67" class="k">validation&quot;</text><text x="82.164" y="1.67" class="i">,</text><text x="83.166" y="1.67" class="j">&quot;status&quot;</text><text x="91.182" y="1.67" class="i">:</text><text x="92.184" y="1.67" class="k">&quot;ready&quot;</text><text x="99.198" y="1.67" class="i">,</text><text x="100.2" y="1.67" class="j">&quot;priority&quot;</text><text x="110.22" y="1.67" class="i">:</text><text x="111.222" y="1.67" class="k">&quot;high&quot;</text><text x="117.234" y="1.67" class="i">}</text></symbol><symbol id="7"><text y="1.67" class="i">{</text><text x="1.002" y="1.67" class="j">&quot;id&quot;</text><text x="5.01" y="1.67" class="i">:</text><text x="6.012" y="1.67" class="k">&quot;task_eccf0094-a6c0-47a7-9fd1-3f5edf721789&quot;</text><text x="49.098" y="1.67" class="i">,</text><text x="50.1" y="1.67" class="j">&quot;status&quot;</text><text x="58.116" y="1.67" class="i">:</text><text x="59.118" y="1.67" class="k">&quot;in_progress&quot;</text><text x="72.144" y="1.67" class="i">,</text><text x="73.146" y="1.67" class="j">&quot;assignee&quot;</text><text x="83.166" y="1.67" class="i">:</text><text x="84.168" y="1.67" class="k">&quot;opencode-worker&quot;</text><text x="101.202" y="1.67" class="i">}</text></symbol><symbol id="8"><text y="1.67" class="g">$</text><text x="2.004" y="1.67" class="h">opencode-worker</text><text x="18.036" y="1.67" class="h">claims</text><text x="25.05" y="1.67" class="h">src/</text><text x="30.06" y="1.67" class="h">recursively</text></symbol><symbol id="9"><text y="1.67" class="i">{</text><text x="1.002" y="1.67" class="j">&quot;path&quot;</text><text x="7.014" y="1.67" class="i">:</text><text x="8.016" y="1.67" class="k">&quot;src&quot;</text><text x="13.026" y="1.67" class="i">,</text><text x="14.028" y="1.67" class="j">&quot;kind&quot;</text><text x="20.04" y="1.67" class="i">:</text><text x="21.042" y="1.67" class="k">&quot;tree&quot;</text><text x="27.054" y="1.67" class="i">,</text><text x="28.056" y="1.67" class="j">&quot;agentName&quot;</text><text x="39.078" y="1.67" class="i">:</text><text x="40.08" y="1.67" class="k">&quot;opencode-worker&quot;</text><text x="57.114" y="1.67" class="i">}</text></symbol><symbol id="10"><text y="1.67" class="g">$</text><text x="2.004" y="1.67" class="h">claude-reviewer</text><text x="18.036" y="1.67" class="h">tries</text><text x="24.048" y="1.67" class="h">to</text><text x="27.054" y="1.67" class="h">claim</text><text x="33.066" y="1.67" class="h">src/api/</text></symbol><symbol id="11"><text y="1.67" class="i">{</text><text x="1.002" y="1.67" class="j">&quot;code&quot;</text><text x="7.014" y="1.67" class="i">:</text><text x="8.016" y="1.67" class="k">&quot;CLAIM_CONFLICT&quot;</text><text x="24.048" y="1.67" class="i">,</text><text x="25.05" y="1.67" class="j">&quot;message&quot;</text><text x="34.068" y="1.67" class="i">:</text><text x="35.07" y="1.67" class="k">&quot;src/api</text><text x="44.088" y="1.67" class="k">overlaps</text><text x="53.106" y="1.67" class="k">opencode-worker&apos;s</text><text x="71.142" y="1.67" class="k">active</text><text x="78.156" y="1.67" class="k">claim.&quot;</text><text x="85.17" y="1.67" class="i">}</text></symbol><symbol id="12"><text y="1.67" class="g">$</text><text x="2.004" y="1.67" class="h">worker</text><text x="9.018" y="1.67" class="h">sends</text><text x="15.03" y="1.67" class="h">context</text><text x="23.046" y="1.67" class="h">and</text><text x="27.054" y="1.67" class="h">offers</text><text x="34.068" y="1.67" class="h">a</text><text x="36.072" y="1.67" class="h">handoff</text></symbol><symbol id="13"><text y="1.67" class="i">{</text><text x="1.002" y="1.67" class="j">&quot;sender&quot;</text><text x="9.018" y="1.67" class="i">:</text><text x="10.02" y="1.67" class="k">&quot;opencode-worker&quot;</text><text x="27.054" y="1.67" class="i">,</text><text x="28.056" y="1.67" class="j">&quot;recipient&quot;</text><text x="39.078" y="1.67" class="i">:</text><text x="40.08" y="1.67" class="k">&quot;claude-reviewer&quot;</text><text x="57.114" y="1.67" class="i">,</text><text x="58.116" y="1.67" class="j">&quot;subject&quot;</text><text x="67.134" y="1.67" class="i">:</text><text x="68.136" y="1.67" class="k">&quot;Ready</text><text x="75.15" y="1.67" class="k">for</text><text x="79.158" y="1.67" class="k">review&quot;</text><text x="86.172" y="1.67" class="i">}</text></symbol><symbol id="14"><text y="1.67" class="i">{</text><text x="1.002" y="1.67" class="j">&quot;id&quot;</text><text x="5.01" y="1.67" class="i">:</text><text x="6.012" y="1.67" class="k">&quot;handoff_03da996a-4858-48d5-819c-bc2b08ae24bf&quot;</text><text x="52.104" y="1.67" class="i">,</text><text x="53.106" y="1.67" class="j">&quot;fromAgent&quot;</text><text x="64.128" y="1.67" class="i">:</text><text x="65.13" y="1.67" class="k">&quot;opencode-worker&quot;</text><text x="82.164" y="1.67" class="i">,</text><text x="83.166" y="1.67" class="j">&quot;toAgent&quot;</text><text x="92.184" y="1.67" class="i">:</text><text x="93.186" y="1.67" class="k">&quot;claude-reviewer&quot;</text><text x="110.22" y="1.67" class="i">,</text><text x="111.222" y="1.67" class="j">&quot;status&quot;</text><text x="119.238" y="1.67" class="i">:</text></symbol><symbol id="15"><text y="1.67" class="k">&quot;offered&quot;</text><text x="9.018" y="1.67" class="i">}</text></symbol><symbol id="16"><text y="1.67" class="g">$</text><text x="2.004" y="1.67" class="h">claude-reviewer</text><text x="18.036" y="1.67" class="h">accepts</text><text x="26.052" y="1.67" class="h">task</text><text x="31.062" y="1.67" class="h">and</text><text x="35.07" y="1.67" class="h">path</text><text x="40.08" y="1.67" class="h">ownership</text></symbol><symbol id="17"><text y="1.67" class="i">{</text><text x="1.002" y="1.67" class="j">&quot;taskId&quot;</text><text x="9.018" y="1.67" class="i">:</text><text x="10.02" y="1.67" class="k">&quot;task_eccf0094-a6c0-47a7-9fd1-3f5edf721789&quot;</text><text x="53.106" y="1.67" class="i">,</text><text x="54.108" y="1.67" class="j">&quot;toAgent&quot;</text><text x="63.126" y="1.67" class="i">:</text><text x="64.128" y="1.67" class="k">&quot;claude-reviewer&quot;</text><text x="81.162" y="1.67" class="i">,</text><text x="82.164" y="1.67" class="j">&quot;status&quot;</text><text x="90.18" y="1.67" class="i">:</text><text x="91.182" y="1.67" class="k">&quot;accepted&quot;</text><text x="101.202" y="1.67" class="i">}</text></symbol><symbol id="18"><text y="1.67" class="g">$</text><text x="2.004" y="1.67" class="h">sametree</text><text x="11.022" y="1.67" class="h">watch</text><text x="17.034" y="1.67" class="h">--once</text><text x="24.048" y="1.67" class="h">|</text><text x="26.052" y="1.67" class="h">grep</text><text x="31.062" y="1.67" class="h">-E</text><text x="34.068" y="1.67" class="h">&apos;task|claim|message|handoff&apos;</text></symbol><symbol id="19"><text y="1.67" class="h">03:03:28</text><text x="10.02" y="1.67" class="h">opencode-worker</text><text x="31.062" y="1.67" class="h">task.created</text><text x="53.106" y="1.67" class="h">task:task_eccf0094-a6c0-47a7-9fd1-3f5edf721789</text><text x="101.202" y="1.67" class="h">high</text></symbol><symbol id="20"><text y="1.67" class="h">03:03:28</text><text x="10.02" y="1.67" class="h">opencode-worker</text><text x="31.062" y="1.67" class="h">task.claimed</text><text x="53.106" y="1.67" class="h">task:task_eccf0094-a6c0-47a7-9fd1-3f5edf721789</text></symbol><symbol id="21"><text y="1.67" class="h">03:03:29</text><text x="10.02" y="1.67" class="h">opencode-worker</text><text x="31.062" y="1.67" class="h">claim.acquired</text><text x="53.106" y="1.67" class="h">claim:claim_fdc25ba5-bdfa-42df-b1c3-4e0c33070b0e</text><text x="103.206" y="1.67" class="h">src</text></symbol><symbol id="22"><text y="1.67" class="h">03:03:31</text><text x="10.02" y="1.67" class="h">opencode-worker</text><text x="31.062" y="1.67" class="h">message.sent</text><text x="53.106" y="1.67" class="h">message:message_74ebaf55-e4d8-4a76-8eaa-46cd93f44ca2</text><text x="107.214" y="1.67" class="h">-&gt;</text><text x="110.22" y="1.67" class="h">claude-rev</text></symbol><symbol id="23"><text y="1.67" class="h">iewer</text></symbol><symbol id="24"><text y="1.67" class="h">03:03:31</text><text x="10.02" y="1.67" class="h">opencode-worker</text><text x="31.062" y="1.67" class="h">handoff.offered</text><text x="53.106" y="1.67" class="h">handoff:handoff_03da996a-4858-48d5-819c-bc2b08ae24bf</text><text x="107.214" y="1.67" class="h">task_eccf0094</text></symbol><symbol id="25"><text y="1.67" class="h">-a6c0-47a7-9fd1-3f5edf721789</text><text x="29.058" y="1.67" class="h">-&gt;</text><text x="32.064" y="1.67" class="h">claude-reviewer</text></symbol><symbol id="26"><text y="1.67" class="h">03:03:31</text><text x="10.02" y="1.67" class="h">claude-reviewer</text><text x="31.062" y="1.67" class="h">handoff.accepted</text><text x="53.106" y="1.67" class="h">handoff:handoff_03da996a-4858-48d5-819c-bc2b08ae24bf</text><text x="107.214" y="1.67" class="h">task_eccf0094</text></symbol><symbol id="27"><text y="1.67" class="h">-a6c0-47a7-9fd1-3f5edf721789</text></symbol><symbol id="a"><path fill="transparent" d="M0 0h120v25H0z"/></symbol></defs><path class="a" d="M0 0h120v52.104H0z"/><g style="animation-duration:6.907645s;animation-iteration-count:infinite;animation-name:m;animation-timing-function:steps(1,end)"><svg width="2400"><svg><use xlink:href="#a"/></svg><svg x="120"><use xlink:href="#a"/><use xlink:href="#1"/><use xlink:href="#2" y="4.342"/></svg><svg x="240"><use xlink:href="#a"/><use xlink:href="#1"/><use xlink:href="#2" y="4.342"/><use xlink:href="#3" y="6.513"/><use xlink:href="#4" y="8.684"/></svg><svg x="360"><use xlink:href="#a"/><use xlink:href="#1"/><use xlink:href="#2" y="4.342"/><use xlink:href="#3" y="6.513"/><use xlink:href="#4" y="8.684"/><use xlink:href="#5" y="10.855"/></svg><svg x="480"><use xlink:href="#a"/><use xlink:href="#1"/><use xlink:href="#2" y="4.342"/><use xlink:href="#3" y="6.513"/><use xlink:href="#4" y="8.684"/><use xlink:href="#5" y="10.855"/><use xlink:href="#6" y="13.026"/></svg><svg x="600"><use xlink:href="#a"/><use xlink:href="#1"/><use xlink:href="#2" y="4.342"/><use xlink:href="#3" y="6.513"/><use xlink:href="#4" y="8.684"/><use xlink:href="#5" y="10.855"/><use xlink:href="#6" y="13.026"/><use xlink:href="#7" y="15.197"/></svg><svg x="720"><use xlink:href="#a"/><use xlink:href="#1"/><use xlink:href="#2" y="4.342"/><use xlink:href="#3" y="6.513"/><use xlink:href="#4" y="8.684"/><use xlink:href="#5" y="10.855"/><use xlink:href="#6" y="13.026"/><use xlink:href="#7" y="15.197"/><use xlink:href="#8" y="17.368"/></svg><svg x="840"><use xlink:href="#a"/><use xlink:href="#1"/><use xlink:href="#2" y="4.342"/><use xlink:href="#3" y="6.513"/><use xlink:href="#4" y="8.684"/><use xlink:href="#5" y="10.855"/><use xlink:href="#6" y="13.026"/><use xlink:href="#7" y="15.197"/><use xlink:href="#8" y="17.368"/><use xlink:href="#9" y="19.539"/></svg><svg x="960"><use xlink:href="#a"/><use xlink:href="#1"/><use xlink:href="#2" y="4.342"/><use xlink:href="#3" y="6.513"/><use xlink:href="#4" y="8.684"/><use xlink:href="#5" y="10.855"/><use xlink:href="#6" y="13.026"/><use xlink:href="#7" y="15.197"/><use xlink:href="#8" y="17.368"/><use xlink:href="#9" y="19.539"/><use xlink:href="#10" y="21.71"/></svg><svg x="1080"><use xlink:href="#a"/><use xlink:href="#1"/><use xlink:href="#2" y="4.342"/><use xlink:href="#3" y="6.513"/><use xlink:href="#4" y="8.684"/><use xlink:href="#5" y="10.855"/><use xlink:href="#6" y="13.026"/><use xlink:href="#7" y="15.197"/><use xlink:href="#8" y="17.368"/><use xlink:href="#9" y="19.539"/><use xlink:href="#10" y="21.71"/><use xlink:href="#11" y="23.881"/></svg><svg x="1200"><use xlink:href="#a"/><use xlink:href="#1"/><use xlink:href="#2" y="4.342"/><use xlink:href="#3" y="6.513"/><use xlink:href="#4" y="8.684"/><use xlink:href="#5" y="10.855"/><use xlink:href="#6" y="13.026"/><use xlink:href="#7" y="15.197"/><use xlink:href="#8" y="17.368"/><use xlink:href="#9" y="19.539"/><use xlink:href="#10" y="21.71"/><use xlink:href="#11" y="23.881"/><use xlink:href="#12" y="26.052"/></svg><svg x="1320"><use xlink:href="#a"/><use xlink:href="#1"/><use xlink:href="#2" y="4.342"/><use xlink:href="#3" y="6.513"/><use xlink:href="#4" y="8.684"/><use xlink:href="#5" y="10.855"/><use xlink:href="#6" y="13.026"/><use xlink:href="#7" y="15.197"/><use xlink:href="#8" y="17.368"/><use xlink:href="#9" y="19.539"/><use xlink:href="#10" y="21.71"/><use xlink:href="#11" y="23.881"/><use xlink:href="#12" y="26.052"/><use xlink:href="#13" y="28.223"/></svg><svg x="1440"><use xlink:href="#a"/><use xlink:href="#1"/><use xlink:href="#2" y="4.342"/><use xlink:href="#3" y="6.513"/><use xlink:href="#4" y="8.684"/><use xlink:href="#5" y="10.855"/><use xlink:href="#6" y="13.026"/><use xlink:href="#7" y="15.197"/><use xlink:href="#8" y="17.368"/><use xlink:href="#9" y="19.539"/><use xlink:href="#10" y="21.71"/><use xlink:href="#11" y="23.881"/><use xlink:href="#12" y="26.052"/><use xlink:href="#13" y="28.223"/><use xlink:href="#14" y="30.394"/><use xlink:href="#15" y="32.565"/></svg><svg x="1560"><use xlink:href="#a"/><use xlink:href="#1"/><use xlink:href="#2" y="4.342"/><use xlink:href="#3" y="6.513"/><use xlink:href="#4" y="8.684"/><use xlink:href="#5" y="10.855"/><use xlink:href="#6" y="13.026"/><use xlink:href="#7" y="15.197"/><use xlink:href="#8" y="17.368"/><use xlink:href="#9" y="19.539"/><use xlink:href="#10" y="21.71"/><use xlink:href="#11" y="23.881"/><use xlink:href="#12" y="26.052"/><use xlink:href="#13" y="28.223"/><use xlink:href="#14" y="30.394"/><use xlink:href="#15" y="32.565"/><use xlink:href="#16" y="34.736"/></svg><svg x="1680"><use xlink:href="#a"/><use xlink:href="#1"/><use xlink:href="#2" y="4.342"/><use xlink:href="#3" y="6.513"/><use xlink:href="#4" y="8.684"/><use xlink:href="#5" y="10.855"/><use xlink:href="#6" y="13.026"/><use xlink:href="#7" y="15.197"/><use xlink:href="#8" y="17.368"/><use xlink:href="#9" y="19.539"/><use xlink:href="#10" y="21.71"/><use xlink:href="#11" y="23.881"/><use xlink:href="#12" y="26.052"/><use xlink:href="#13" y="28.223"/><use xlink:href="#14" y="30.394"/><use xlink:href="#15" y="32.565"/><use xlink:href="#16" y="34.736"/><use xlink:href="#17" y="36.907"/></svg><svg x="1800"><use xlink:href="#a"/><use xlink:href="#1"/><use xlink:href="#2" y="4.342"/><use xlink:href="#3" y="6.513"/><use xlink:href="#4" y="8.684"/><use xlink:href="#5" y="10.855"/><use xlink:href="#6" y="13.026"/><use xlink:href="#7" y="15.197"/><use xlink:href="#8" y="17.368"/><use xlink:href="#9" y="19.539"/><use xlink:href="#10" y="21.71"/><use xlink:href="#11" y="23.881"/><use xlink:href="#12" y="26.052"/><use xlink:href="#13" y="28.223"/><use xlink:href="#14" y="30.394"/><use xlink:href="#15" y="32.565"/><use xlink:href="#16" y="34.736"/><use xlink:href="#17" y="36.907"/><use xlink:href="#18" y="39.078"/></svg><svg x="1920"><use xlink:href="#a"/><use xlink:href="#1"/><use xlink:href="#2" y="4.342"/><use xlink:href="#3" y="6.513"/><use xlink:href="#4" y="8.684"/><use xlink:href="#5" y="10.855"/><use xlink:href="#6" y="13.026"/><use xlink:href="#7" y="15.197"/><use xlink:href="#8" y="17.368"/><use xlink:href="#9" y="19.539"/><use xlink:href="#10" y="21.71"/><use xlink:href="#11" y="23.881"/><use xlink:href="#12" y="26.052"/><use xlink:href="#13" y="28.223"/><use xlink:href="#14" y="30.394"/><use xlink:href="#15" y="32.565"/><use xlink:href="#16" y="34.736"/><use xlink:href="#17" y="36.907"/><use xlink:href="#18" y="39.078"/><use xlink:href="#19" y="41.249"/><use xlink:href="#20" y="43.42"/></svg><svg x="2040"><use xlink:href="#a"/><use xlink:href="#1"/><use xlink:href="#2" y="4.342"/><use xlink:href="#3" y="6.513"/><use xlink:href="#4" y="8.684"/><use xlink:href="#5" y="10.855"/><use xlink:href="#6" y="13.026"/><use xlink:href="#7" y="15.197"/><use xlink:href="#8" y="17.368"/><use xlink:href="#9" y="19.539"/><use xlink:href="#10" y="21.71"/><use xlink:href="#11" y="23.881"/><use xlink:href="#12" y="26.052"/><use xlink:href="#13" y="28.223"/><use xlink:href="#14" y="30.394"/><use xlink:href="#15" y="32.565"/><use xlink:href="#16" y="34.736"/><use xlink:href="#17" y="36.907"/><use xlink:href="#18" y="39.078"/><use xlink:href="#19" y="41.249"/><use xlink:href="#20" y="43.42"/><use xlink:href="#21" y="45.591"/></svg><svg x="2160"><use xlink:href="#a"/><use xlink:href="#4"/><use xlink:href="#5" y="2.171"/><use xlink:href="#6" y="4.342"/><use xlink:href="#7" y="6.513"/><use xlink:href="#8" y="8.684"/><use xlink:href="#9" y="10.855"/><use xlink:href="#10" y="13.026"/><use xlink:href="#11" y="15.197"/><use xlink:href="#12" y="17.368"/><use xlink:href="#13" y="19.539"/><use xlink:href="#14" y="21.71"/><use xlink:href="#15" y="23.881"/><use xlink:href="#16" y="26.052"/><use xlink:href="#17" y="28.223"/><use xlink:href="#18" y="30.394"/><use xlink:href="#19" y="32.565"/><use xlink:href="#20" y="34.736"/><use xlink:href="#21" y="36.907"/><use xlink:href="#22" y="39.078"/><use xlink:href="#23" y="41.249"/><use xlink:href="#24" y="43.42"/><use xlink:href="#25" y="45.591"/><use xlink:href="#26" y="47.762"/><use xlink:href="#27" y="49.933"/></svg><svg x="2280"><use xlink:href="#a"/><use xlink:href="#6"/><use xlink:href="#7" y="2.171"/><use xlink:href="#8" y="4.342"/><use xlink:href="#9" y="6.513"/><use xlink:href="#10" y="8.684"/><use xlink:href="#11" y="10.855"/><use xlink:href="#12" y="13.026"/><use xlink:href="#13" y="15.197"/><use xlink:href="#14" y="17.368"/><use xlink:href="#15" y="19.539"/><use xlink:href="#16" y="21.71"/><use xlink:href="#17" y="23.881"/><use xlink:href="#18" y="26.052"/><use xlink:href="#19" y="28.223"/><use xlink:href="#20" y="30.394"/><use xlink:href="#21" y="32.565"/><use xlink:href="#22" y="34.736"/><use xlink:href="#23" y="36.907"/><use xlink:href="#24" y="39.078"/><use xlink:href="#25" y="41.249"/><use xlink:href="#26" y="43.42"/><use xlink:href="#27" y="45.591"/><text y="51.603" class="o">No</text><text x="3.006" y="51.603" class="o">daemon.</text><text x="11.022" y="51.603" class="o">No</text><text x="14.028" y="51.603" class="o">worktrees.</text><text x="25.05" y="51.603" class="o">Shared</text><text x="32.064" y="51.603" class="o">context</text><text x="40.08" y="51.603" class="o">stays</text><text x="46.092" y="51.603" class="o">local.</text></svg></svg></g></g></svg></svg>